<?xml version="1.0" encoding="UTF-8"?>
<svg id="Layer_1" data-name="Layer 1" xmlns="http://www.w3.org/2000/svg" viewBox="0 0 351.74 82.6">
  <defs>
    <style>
      .cls-1 {
        fill: #f9be1b;
      }

      .cls-2 {
        fill: #2c2f3b;
      }
    </style>
  </defs>
  <g>
    <path class="cls-2" d="M107.3,70.78h-4.33l-.77,1.73h-.79l3.35-7.47h.75l3.35,7.47h-.79l-.77-1.73ZM103.26,70.1h3.73l-1.87-4.25-1.87,4.25Z"/>
    <path class="cls-2" d="M117.38,65.04c2.53,0,3.74,1.81,3.74,3.66s-1.13,3.81-3.74,3.81h-2.64v-7.47h2.64ZM115.49,71.82h1.89c2.08,0,3.02-1.62,2.99-3.13-.03-1.45-.97-2.95-2.99-2.95h-1.89v6.07Z"/>
    <polygon class="cls-2" points="130.29 72.53 129.46 72.53 126.28 65.05 127.1 65.05 129.87 71.71 132.61 65.05 133.44 65.05 130.29 72.53"/>
    <polygon class="cls-2" points="144.74 72.51 139.38 72.51 139.38 65.05 144.64 65.05 144.64 65.75 140.13 65.75 140.13 68.43 144.44 68.43 144.44 69.12 140.13 69.12 140.13 71.81 144.74 71.81 144.74 72.51"/>
    <path class="cls-2" d="M157.13,72.51h-.97l-2.48-2.75h-1.93v2.75h-.75v-7.47h3.35c1.66,0,2.46,1.11,2.48,2.37,0,1.16-.67,2.22-2.25,2.29l2.55,2.81ZM151.75,65.75v3.31h2.56c1.19,0,1.77-.7,1.77-1.64s-.58-1.66-1.73-1.66h-2.6Z"/>
    <polygon class="cls-2" points="164.81 65.75 162.17 65.75 162.17 65.05 168.19 65.05 168.19 65.75 165.55 65.75 165.55 72.51 164.81 72.51 164.81 65.75"/>
    <rect class="cls-2" x="174.03" y="65.05" width=".75" height="7.47"/>
    <path class="cls-2" d="M186.14,66.58c-.44-.7-1.36-.94-2.14-.95-.92,0-2.1.27-2.1,1.37,0,.88.96,1.11,2.12,1.31,1.47.26,2.97.59,2.97,2.18-.01,1.69-1.63,2.14-2.99,2.14-1.26,0-2.54-.46-3.12-1.65l.65-.35c.51.96,1.56,1.29,2.46,1.29s2.23-.25,2.23-1.44c.01-1.01-1.12-1.27-2.28-1.47-1.41-.25-2.8-.55-2.8-2-.02-1.57,1.58-2.07,2.84-2.07,1.02,0,2.12.28,2.78,1.3l-.63.35Z"/>
    <rect class="cls-2" x="193.15" y="65.05" width=".75" height="7.47"/>
    <polygon class="cls-2" points="205.9 71.1 205.85 68.63 205.85 65.04 206.6 65.04 206.6 72.51 206.15 72.51 201.32 66.51 201.34 68.71 201.34 72.51 200.59 72.51 200.59 65.04 201.06 65.04 205.9 71.1"/>
    <path class="cls-2" d="M219,66.52c-.61-.61-1.49-.9-2.29-.9-2.04,0-3.14,1.51-3.13,3.19,0,1.63,1.03,3.08,3.13,3.08.75,0,1.53-.26,2.14-.81v-1.89h-2.44v-.69h3.16v2.89c-.77.79-1.7,1.23-2.86,1.23-2.6,0-3.87-1.78-3.87-3.8-.01-2.28,1.51-3.9,3.87-3.9.99,0,1.98.37,2.74,1.12l-.45.48Z"/>
    <path class="cls-2" d="M238.11,70.51c0,.7.2,1.36.88,1.36v.66c-.61.06-1.12-.2-1.31-.92-.38.64-1.51,1-2.15,1-1.77,0-2.82-.73-2.82-2.16,0-.86.65-1.5,1.42-1.75-.76-.24-1.29-.9-1.29-1.68.01-1.26,1.06-2.05,2.67-2.05,1.22,0,2.52.32,2.53,1.88h-.66c0-1.06-.95-1.27-1.89-1.27-1.34,0-1.93.68-1.92,1.43,0,1.05,1.18,1.39,1.98,1.39h3.24v.59h-.68v1.51ZM233.45,70.46c0,.92.74,1.49,2.06,1.49.77,0,1.95-.46,1.95-1.45v-1.51h-1.95c-1.53,0-2.06.78-2.06,1.47"/>
    <polygon class="cls-2" points="258.87 66.14 256.09 70.24 255.87 70.24 253.08 66.09 253.08 72.51 252.33 72.51 252.33 65.05 253.25 65.05 255.98 69.16 258.68 65.05 259.62 65.05 259.62 72.51 258.87 72.51 258.87 66.14"/>
    <path class="cls-2" d="M271.4,70.78h-4.33l-.77,1.73h-.79l3.35-7.47h.75l3.35,7.47h-.79l-.77-1.73ZM267.37,70.1h3.73l-1.87-4.25-1.87,4.25Z"/>
    <path class="cls-2" d="M284.97,72.51h-.97l-2.48-2.75h-1.93v2.75h-.75v-7.47h3.35c1.66,0,2.46,1.11,2.47,2.37.01,1.16-.67,2.22-2.25,2.29l2.55,2.81ZM279.59,65.75v3.31h2.56c1.19,0,1.77-.7,1.77-1.64s-.58-1.66-1.73-1.66h-2.6Z"/>
    <polygon class="cls-2" points="296.13 65.1 292.49 68.63 296.45 72.46 296.45 72.51 295.52 72.51 291.78 68.9 291.78 72.51 291.03 72.51 291.03 65.05 291.78 65.05 291.78 68.41 295.24 65.05 296.13 65.05 296.13 65.1"/>
    <polygon class="cls-2" points="307.48 72.51 302.13 72.51 302.13 65.05 307.39 65.05 307.39 65.75 302.87 65.75 302.87 68.43 307.18 68.43 307.18 69.12 302.87 69.12 302.87 71.81 307.48 71.81 307.48 72.51"/>
    <polygon class="cls-2" points="315.52 65.75 312.88 65.75 312.88 65.05 318.9 65.05 318.9 65.75 316.26 65.75 316.26 72.51 315.52 72.51 315.52 65.75"/>
    <rect class="cls-2" x="324.74" y="65.05" width=".75" height="7.47"/>
    <polygon class="cls-2" points="337.49 71.1 337.44 68.63 337.44 65.04 338.19 65.04 338.19 72.51 337.74 72.51 332.91 66.51 332.93 68.71 332.93 72.51 332.18 72.51 332.18 65.04 332.65 65.04 337.49 71.1"/>
    <path class="cls-2" d="M350.59,66.52c-.61-.61-1.49-.9-2.29-.9-2.04,0-3.14,1.51-3.13,3.19,0,1.63,1.03,3.08,3.13,3.08.75,0,1.53-.26,2.14-.81v-1.89h-2.44v-.69h3.16v2.89c-.77.79-1.7,1.23-2.86,1.23-2.6,0-3.87-1.78-3.87-3.8-.01-2.28,1.51-3.9,3.87-3.9.99,0,1.98.37,2.74,1.12l-.45.48Z"/>
  </g>
  <g>
    <path class="cls-2" d="M129.35,43.75h-15.34l-2.85,7.05h-10.47l16.02-36.28h10.11l16.07,36.28h-10.68l-2.85-7.05ZM126.34,36.19l-4.66-11.61-4.66,11.61h9.33Z"/>
    <path class="cls-2" d="M161.63,41.16h-5.6v9.64h-10.26V14.52h16.59c3.28,0,6.13.54,8.55,1.63,2.42,1.09,4.28,2.64,5.6,4.66,1.31,2.02,1.97,4.4,1.97,7.13s-.61,4.92-1.84,6.87c-1.23,1.95-2.98,3.48-5.26,4.59l7.83,11.4h-10.99l-6.58-9.64ZM166.51,24.01c-1.07-.93-2.66-1.4-4.77-1.4h-5.7v10.62h5.7c2.11,0,3.7-.46,4.77-1.37,1.07-.92,1.61-2.22,1.61-3.91s-.54-3.01-1.61-3.94Z"/>
    <path class="cls-2" d="M191.38,22.66h-11.14v-8.14h32.5v8.14h-11.09v28.14h-10.26v-28.14Z"/>
    <path class="cls-2" d="M231.65,14.52h10.26v28.14h17.31v8.14h-27.57V14.52Z"/>
    <path class="cls-2" d="M263.27,14.52h10.26v36.28h-10.26V14.52Z"/>
    <path class="cls-2" d="M315.36,14.52v36.28h-8.45l-16.02-19.33v19.33h-10.05V14.52h8.45l16.02,19.33V14.52h10.05Z"/>
    <path class="cls-2" d="M351.74,42.87v7.93h-29.13V14.52h28.45v7.93h-18.3v6.12h16.12v7.67h-16.12v6.63h18.97Z"/>
  </g>
  <g>
    <path class="cls-1" d="M66.11,54.77c-1.8-4-3.61-8-5.42-11.99-1.36-2.98-2.75-5.95-4.09-8.94-1.19-2.68-2.31-5.39-3.51-8.07-.67-1.51-1.44-2.98-2.13-4.49-.06-.13-.13-.26-.19-.39-.74-1.64-1.37-3.33-2.1-4.98-1.19-2.69-2.42-5.36-3.63-8.03-1.07-2.36-2.12-4.72-3.21-7.07-.14-.31-.46-.54-.69-.81-.19.24-.42.46-.55.73-1.17,2.49-2.37,4.98-3.48,7.5-1.48,3.35-2.85,6.75-4.34,10.1-.57,1.29-1.16,2.56-1.75,3.84-1.11,2.42-2.23,4.84-3.31,7.27-1.8,4.01-3.54,8.05-5.31,12.07-.53,1.2-1.03,2.4-1.61,3.58-.27.54-.17.87.32,1.16,1.19.73,2.36,1.49,3.57,2.19,2.11,1.23,4.24,2.44,6.36,3.65.61.35,1.21.69,1.82,1.04,1.07.62,2.15,1.25,3.22,1.87,0,0,0,0,0,0,1.97,1.15,3.94,2.3,5.91,3.44,2.99,1.73,5.99,3.44,8.98,5.16,1.22.7,2.44,1.4,3.65,2.1,2.71,1.56,5.42,3.14,8.12,4.71.76.44,1.51.88,2.27,1.32.84.49,1.68.97,2.52,1.46.14.08.28.16.42.24,1.18-.94,2.31-1.95,3.39-3.01.41-.41.81-.83,1.2-1.25-.68-1.54-1.36-3.07-2.04-4.61-1.46-3.27-2.91-6.54-4.38-9.8Z"/>
    <path class="cls-1" d="M51.68.11c1.86,4.06,3.71,8.12,5.56,12.18,1.41,3.09,2.83,6.18,4.22,9.28,1.2,2.67,2.35,5.36,3.54,8.02.68,1.51,1.42,2.99,2.1,4.5,1.24,2.75,2.43,5.52,3.68,8.27.94,2.09,1.95,4.15,2.89,6.24,1.41,3.12,2.78,6.26,4.19,9.39.33.74.67,1.48,1.01,2.21,3.05-5.81,4.79-12.42,4.79-19.44C83.66,21.06,70.03,4.54,51.68.11Z"/>
    <path class="cls-1" d="M12.59,39.33c1.38-3.01,2.81-6,4.18-9.02,1.12-2.46,2.18-4.95,3.28-7.43,1.1-2.47,2.2-4.95,3.32-7.41,1.04-2.28,2.12-4.54,3.15-6.82,1.21-2.68,2.4-5.37,3.61-8.05C12.72,5.67,0,21.73,0,40.77c0,6.36,1.43,12.39,3.97,17.79.15-.33.29-.66.44-1,.37-.85.75-1.7,1.12-2.55h0c.46-1.07.93-2.15,1.41-3.22,1.17-2.6,2.41-5.17,3.59-7.76.71-1.56,1.36-3.15,2.07-4.71Z"/>
    <path class="cls-1" d="M42.82,69.59c-1.28-.75-2.63-1.37-3.9-2.11-2.38-1.39-4.73-2.85-7.12-4.24-.26-.15-.52-.3-.78-.45-1.91-1.1-3.83-2.16-5.74-3.26-1.82-1.04-3.62-2.1-5.44-3.14-.7-.41-1.41-.81-2.13-1.2-.62-.33-1.16-.23-1.48.41-.79,1.62-1.56,3.24-2.3,4.88-.8,1.78-1.54,3.58-2.32,5.36-.38.87-.76,1.73-1.14,2.59.34.39.69.76,1.04,1.14,7.62,8.01,18.38,13.02,30.31,13.02,6.11,0,11.9-1.32,17.13-3.67-2.2-1.24-4.43-2.43-6.62-3.69-3.19-1.85-6.34-3.78-9.52-5.64Z"/>
  </g>
</svg>